<?xml version="1.0" encoding="iso-8859-1"?>
<!-- Uploaded to: SVG Repo, www.svgrepo.com, Generator: SVG Repo Mixer Tools -->
<!DOCTYPE svg PUBLIC "-//W3C//DTD SVG 1.1//EN" "http://www.w3.org/Graphics/SVG/1.1/DTD/svg11.dtd">
<svg height="800px" width="800px" version="1.1" id="Capa_1" xmlns="http://www.w3.org/2000/svg" xmlns:xlink="http://www.w3.org/1999/xlink" 
	 viewBox="0 0 494.232 494.232" xml:space="preserve">
<path id="cup-2" style="fill:#000100;" d="M435.674,109.032c-11.238-5.995-23.7-9.025-37.032-9.025
	c-6.265,0-12.595,0.72-18.929,2.019l2.297-24.336c0.085-0.927,0.085-4.833,0.085-5.939C382.095,22.453,286.343,0,197.373,0
	C108.421,0,12.67,22.453,12.67,71.75c0,1.106,0,5.012,0.085,5.939l34.219,360.813c0,54.173,135.344,55.73,150.785,55.73
	c15.426,0,148.992-1.767,150.771-55.73c0.046-1.396,4.674-56.535,4.674-56.535c35.121-13.37,78.531-37.607,101.125-80.004
	C496.905,222.056,488.713,137.307,435.674,109.032z M197.373,34.303c97.714,0,150.418,26.581,150.418,37.447
	c0,10.862-52.704,37.428-150.418,37.428c-97.696,0-150.399-26.566-150.399-37.428C46.974,60.884,99.677,34.303,197.373,34.303z
	 M408.911,277.767c-10.892,20.435-30.266,35.014-50.15,45.424l15.63-164.993c8.81-4.301,17.148-6.739,24.251-6.739
	c4.875,0,9.077,0.969,12.828,2.98C434.685,166.814,438.534,222.188,408.911,277.767z"/>
</svg>